<svg width="616" height="630" viewBox="0 0 616 630" fill="none" xmlns="http://www.w3.org/2000/svg">
<rect x="20.8301" y="452.33" width="90" height="41" transform="rotate(-30 20.8301 452.33)" stroke="#4285F4" stroke-width="10"/>
<rect x="95" y="335.5" width="90" height="41" transform="rotate(180 95 335.5)" stroke="#4285F4" stroke-width="10"/>
<rect x="41.3301" y="142.163" width="90" height="41" transform="rotate(30 41.3301 142.163)" stroke="#4285F4" stroke-width="10"/>
<path d="M365.728 335.64C356.06 347.065 345.22 355.708 333.208 361.567C321.343 367.28 308.159 370.137 293.657 370.137C279.888 370.137 266.997 367.5 254.985 362.227C243.12 356.807 232.793 349.336 224.004 339.814C215.361 330.146 208.696 318.94 204.009 306.196C199.321 293.306 196.978 279.829 196.978 265.767C196.978 250.679 199.614 236.396 204.888 222.92C210.161 209.297 217.705 197.505 227.52 187.544C237.334 177.583 248.979 169.819 262.456 164.253C276.079 158.687 291.094 155.903 307.5 155.903C326.396 155.903 343.242 159.346 358.037 166.23C372.832 173.115 385.283 183.149 395.391 196.333C405.498 209.37 413.262 225.85 418.682 245.771C424.102 265.693 426.812 288.252 426.812 313.447C426.812 341.572 423.955 366.401 418.242 387.935C412.529 409.321 404.18 427.339 393.193 441.987C382.354 456.489 369.316 467.329 354.082 474.507C338.848 481.538 321.562 485.054 302.227 485.054C283.184 485.054 266.631 481.465 252.568 474.287C238.506 466.963 227.812 457.954 220.488 447.261C213.164 436.421 209.502 426.021 209.502 416.06C209.502 409.907 211.772 404.414 216.313 399.58C220.854 394.746 226.641 392.329 233.672 392.329C240.117 392.329 245.903 394.16 251.03 397.822C256.157 401.338 260.039 406.685 262.676 413.862C265.898 422.651 271.245 429.756 278.716 435.176C286.187 440.449 294.609 443.086 303.984 443.086C312.334 443.086 320.244 440.962 327.715 436.714C335.186 432.466 341.558 426.46 346.831 418.696C357.378 403.022 363.677 375.337 365.728 335.64ZM360.674 268.403C360.674 258.442 359.282 249.287 356.499 240.938C353.862 232.441 350.054 225.117 345.073 218.965C340.239 212.812 334.38 207.979 327.495 204.463C320.757 200.947 313.359 199.189 305.303 199.189C291.387 199.189 279.595 205.195 269.927 217.207C260.259 229.072 255.425 244.819 255.425 264.448C255.425 283.931 260.259 299.458 269.927 311.03C279.595 322.603 291.826 328.389 306.621 328.389C315.703 328.389 324.346 326.045 332.549 321.357C340.898 316.523 347.637 309.565 352.764 300.483C358.037 291.401 360.674 280.708 360.674 268.403Z" fill="#4285F4"/>
<rect x="496.933" y="187.163" width="90" height="41" transform="rotate(-30 496.933 187.163)" stroke="#4285F4" stroke-width="10"/>
<rect x="521" y="294.5" width="90" height="41" stroke="#4285F4" stroke-width="10"/>
<rect x="517.433" y="407.33" width="90" height="41" transform="rotate(30 517.433 407.33)" stroke="#4285F4" stroke-width="10"/>
</svg>
